<svg version="1.1" xmlns="http://www.w3.org/2000/svg" width="32" height="32" viewBox="0 0 20 20" xml:space="preserve">
    <path fill="#ffffff" d="M10.4,11.4c0.8-0.4,1.4-0.8,1.8-1.3c0.6-0.7,0.9-1.4,1.1-2.3c0.1-0.2,0.1-0.3,0.1-2.9c0-2.9,0-2.9,0.2-3.2
	c0.2-0.3,0.4-0.6,0.7-0.7C14.3,1,14.5,1,14.5,1s0.1,0,0.1-0.1C14.5,1,6.9,1,6.8,1c0,0,0,0,0.8,0.1c0.7,0.1,1.2,0.3,1.6,0.7
	c0.6,0.5,0.8,1.1,0.8,1.7c0,0.5-0.2,1-0.6,1.4C9.2,5.1,9.2,5.1,8.7,5.5C8.3,5.7,8.1,5.8,7.8,6c-1.1,0.7-2,1.9-2.3,3.3
	c-0.2,0.6-0.1,0.3-0.1,4.6c0,4.3,0,5.3,0.1,5.3c0,0,0-0.3,0.1-0.7c0-0.7,0.1-1,0.2-1.6C5.8,16.5,5.9,16,6,15.7
	c0.2-0.6,0.5-1.2,0.9-1.7c0.2-0.2,0.6-0.8,1-1.1c0.2-0.2,0.7-0.5,1-0.7 M11.4,3.2c-0.3,0-0.6-0.2-0.6-0.6S11.1,2,11.4,2
	C11.8,2,12,2.3,12,2.6C12,2.8,11.8,3.2,11.4,3.2z"/>
    <path fill="#ffffff" d="M9.8,18.9C9.6,17.6,9.4,14,9.4,14s-0.1-0.4-0.1-0.5c0-0.1-0.1-0.4-0.1-0.4h1.3c0,0-0.1,0.3-0.1,0.4
	S10.2,14,10.2,14S9.9,17.5,9.8,18.9"/>
</svg>
